# xmcd
#
# Track frame offsets:
#	150
#	17242
#	41118
#	66034
#	87984
#	113624
#	139319
#	163460
#	179950
#	197235
#	219851
#	240432
#	264351
#	289721
#	307010
#	323376
#
# Disc length: 4666 seconds
#
# Revision: 0
# Processed by: cddbd v1.5.2PL0 Copyright (c) Steve Scherf et al.
# Submitted via: dBpowerAMP V4.0
#
DISCID=ec123810
DTITLE=Jenny Nimmo - Charlie Bone und das magische Schwert CD2
DYEAR=2008
DGENRE=Lesung
TTITLE0=Die Verwandlungskäfer (1)
TTITLE1=Die Verwandlungskäfer (2)
TTITLE2=Die Verwandlungskäfer (3)
TTITLE3=Die Verwandlungskäfer (4)
TTITLE4=Die Verwandlungskäfer (5)
TTITLE5=Feromels Kessel (1)
TTITLE6=Feromels Kessel (2)
TTITLE7=Feromels Kessel (3)
TTITLE8=Feromels Kessel (4)
TTITLE9=Der Steintroll (1)
TTITLE10=Der Steintroll (2)
TTITLE11=Der Steintroll (3)
TTITLE12=Jagd auf den wilden Wolf (1)
TTITLE13=Jagd auf den wilden Wolf (2)
TTITLE14=Jagd auf den wilden Wolf (3)
TTITLE15=Jagd auf den wilden Wolf (4)
EXTD=
EXTT0=
EXTT1=
EXTT2=
EXTT3=
EXTT4=
EXTT5=
EXTT6=
EXTT7=
EXTT8=
EXTT9=
EXTT10=
EXTT11=
EXTT12=
EXTT13=
EXTT14=
EXTT15=
PLAYORDER=
